# xmcd
#
# Track frame offsets: 
#        150
#        1020
#        8219
#        33785
#        65630
#        100925
#        125227
#        149996
#        195077
#        212567
#        257770
#        296202
#
# Disc length: 4502 seconds
#
# Revision: 0
# Processed by: cddbd v1.5.2PL0 Copyright (c) Steve Scherf et al.
# Submitted via: ExactAudioCopy v0.99pb4
#
DISCID=af11940c
DTITLE=Tinsley Ellis - Highwayman
DYEAR=2005
DGENRE=Blues
TTITLE0=Introduction
TTITLE1=To The Devil For A Dime
TTITLE2=Highwayman
TTITLE3=Quitter Never Wins
TTITLE4=Real Bad Way
TTITLE5=Hell Or High Water
TTITLE6=Next Miss Wrong
TTITLE7=Last Song
TTITLE8=Leavin' Here
TTITLE9=Pawnbroker
TTITLE10=Axe
TTITLE11=Double Eyed Whammy
EXTD=
EXTT0=
EXTT1=
EXTT2=
EXTT3=
EXTT4=
EXTT5=
EXTT6=
EXTT7=
EXTT8=
EXTT9=
EXTT10=
EXTT11=
PLAYORDER=
